<svg width="22" height="22" viewBox="0 0 22 22" fill="none" xmlns="http://www.w3.org/2000/svg">
<path d="M6.71429 17.6667C6.71429 17.6667 6.71429 21 11.0663 21C15.4184 21 15.4184 17.6667 15.4184 17.6667" stroke="#7B7878" stroke-width="2" stroke-linejoin="round"/>
<path d="M3.8515 6.23098L1.61936 15.1828C1.30468 16.4448 2.2593 17.6667 3.55994 17.6667H6.71429H15.2857H18.4401C19.7407 17.6667 20.6953 16.4448 20.3806 15.1828L18.1485 6.23098C18.1447 6.21588 18.1414 6.20283 18.137 6.18791C18.0325 5.83402 16.5051 1 11 1C5.49489 1 3.96747 5.83401 3.86303 6.18791C3.85862 6.20283 3.85526 6.21588 3.8515 6.23098Z" stroke="#7B7878" stroke-width="2" stroke-linejoin="round"/>
</svg>
